<svg width="50" height="16" viewBox="0 0 263 16" fill="none" xmlns="http://www.w3.org/2000/svg">
<path d="M262.707 8.70711C263.098 8.31658 263.098 7.68342 262.707 7.29289L256.343 0.928932C255.953 0.538408 255.319 0.538408 254.929 0.928932C254.538 1.31946 254.538 1.95262 254.929 2.34315L260.586 8L254.929 13.6569C254.538 14.0474 254.538 14.6805 254.929 15.0711C255.319 15.4616 255.953 15.4616 256.343 15.0711L262.707 8.70711ZM0 9H1.98485V7H0V9ZM5.95455 9H9.92424V7H5.95455V9ZM13.8939 9H17.8636V7H13.8939V9ZM21.8333 9H25.803V7H21.8333V9ZM29.7727 9H33.7424V7H29.7727V9ZM37.7121 9H41.6818V7H37.7121V9ZM45.6515 9H49.6212V7H45.6515V9ZM53.5909 9H57.5606V7H53.5909V9ZM61.5303 9H65.5V7H61.5303V9ZM69.4697 9H73.4394V7H69.4697V9ZM77.4091 9H81.3788V7H77.4091V9ZM85.3485 9H89.3182V7H85.3485V9ZM93.2879 9H97.2576V7H93.2879V9ZM101.227 9H105.197V7H101.227V9ZM109.167 9H113.136V7H109.167V9ZM117.106 9H121.076V7H117.106V9ZM125.045 9H129.015V7H125.045V9ZM132.985 9H136.955V7H132.985V9ZM140.924 9H144.894V7H140.924V9ZM148.864 9H152.833V7H148.864V9ZM156.803 9H160.773V7H156.803V9ZM164.742 9H168.712V7H164.742V9ZM172.682 9H176.651V7H172.682V9ZM180.621 9H184.591V7H180.621V9ZM188.561 9H192.53V7H188.561V9ZM196.5 9H200.47V7H196.5V9ZM204.439 9H208.409V7H204.439V9ZM212.379 9H216.348V7H212.379V9ZM220.318 9H224.288V7H220.318V9ZM228.258 9H232.227V7H228.258V9ZM236.197 9H240.167V7H236.197V9ZM244.136 9H248.106V7H244.136V9ZM252.076 9H256.045V7H252.076V9ZM260.015 9H262V7H260.015V9Z" fill="#BFC8DA"/>
</svg>
