<svg width="200" height="16" viewBox="0 0 660 16" fill="none" xmlns="http://www.w3.org/2000/svg">
<path d="M659.707 8.70711C660.098 8.31658 660.098 7.68342 659.707 7.29289L653.343 0.928932C652.953 0.538408 652.319 0.538408 651.929 0.928932C651.538 1.31946 651.538 1.95262 651.929 2.34315L657.586 8L651.929 13.6569C651.538 14.0474 651.538 14.6805 651.929 15.0711C652.319 15.4616 652.953 15.4616 653.343 15.0711L659.707 8.70711ZM0 9H2.00915V7H0V9ZM6.02744 9H10.0457V7H6.02744V9ZM14.064 9H18.0823V7H14.064V9ZM22.1006 9H26.1189V7H22.1006V9ZM30.1372 9H34.1555V7H30.1372V9ZM38.1738 9H42.1921V7H38.1738V9ZM46.2104 9H50.2287V7H46.2104V9ZM54.2469 9H58.2652V7H54.2469V9ZM62.2835 9H66.3018V7H62.2835V9ZM70.3201 9H74.3384V7H70.3201V9ZM78.3567 9H82.375V7H78.3567V9ZM86.3933 9H90.4116V7H86.3933V9ZM94.4299 9H98.4482V7H94.4299V9ZM102.466 9H106.485V7H102.466V9ZM110.503 9H114.521V7H110.503V9ZM118.54 9H122.558V7H118.54V9ZM126.576 9H130.595V7H126.576V9ZM134.613 9H138.631V7H134.613V9ZM142.649 9H146.668V7H142.649V9ZM150.686 9H154.704V7H150.686V9ZM158.723 9H162.741V7H158.723V9ZM166.759 9H170.777V7H166.759V9ZM174.796 9H178.814V7H174.796V9ZM182.832 9H186.851V7H182.832V9ZM190.869 9H194.887V7H190.869V9ZM198.906 9H202.924V7H198.906V9ZM206.942 9H210.96V7H206.942V9ZM214.979 9H218.997V7H214.979V9ZM223.015 9H227.034V7H223.015V9ZM231.052 9H235.07V7H231.052V9ZM239.089 9H243.107V7H239.089V9ZM247.125 9H251.143V7H247.125V9ZM255.162 9H259.18V7H255.162V9ZM263.198 9H267.217V7H263.198V9ZM271.235 9H275.253V7H271.235V9ZM279.271 9H283.29V7H279.271V9ZM287.308 9H291.326V7H287.308V9ZM295.345 9H299.363V7H295.345V9ZM303.381 9H307.399V7H303.381V9ZM311.418 9H315.436V7H311.418V9ZM319.454 9H323.472V7H319.454V9ZM327.491 9H331.509V7H327.491V9ZM335.527 9H339.546V7H335.527V9ZM343.564 9H347.582V7H343.564V9ZM351.6 9H355.619V7H351.6V9ZM359.637 9H363.655V7H359.637V9ZM367.674 9H371.692V7H367.674V9ZM375.71 9H379.728V7H375.71V9ZM383.747 9H387.765V7H383.747V9ZM391.783 9H395.802V7H391.783V9ZM399.82 9H403.838V7H399.82V9ZM407.856 9H411.875V7H407.856V9ZM415.893 9H419.911V7H415.893V9ZM423.929 9H427.948V7H423.929V9ZM431.966 9H435.984V7H431.966V9ZM440.003 9H444.021V7H440.003V9ZM448.039 9H452.057V7H448.039V9ZM456.076 9H460.094V7H456.076V9ZM464.112 9H468.131V7H464.112V9ZM472.149 9H476.167V7H472.149V9ZM480.185 9H484.204V7H480.185V9ZM488.222 9H492.24V7H488.222V9ZM496.259 9H500.277V7H496.259V9ZM504.295 9H508.313V7H504.295V9ZM512.332 9H516.35V7H512.332V9ZM520.368 9H524.387V7H520.368V9ZM528.405 9H532.423V7H528.405V9ZM536.442 9H540.46V7H536.442V9ZM544.478 9H548.496V7H544.478V9ZM552.515 9H556.533V7H552.515V9ZM560.551 9H564.57V7H560.551V9ZM568.588 9H572.606V7H568.588V9ZM576.625 9H580.643V7H576.625V9ZM584.661 9H588.68V7H584.661V9ZM592.698 9H596.716V7H592.698V9ZM600.734 9H604.753V7H600.734V9ZM608.771 9H612.789V7H608.771V9ZM616.808 9H620.826V7H616.808V9ZM624.844 9H628.863V7H624.844V9ZM632.881 9H636.899V7H632.881V9ZM640.918 9H644.936V7H640.918V9ZM648.954 9H652.973V7H648.954V9ZM656.991 9H659V7H656.991V9Z" fill="#BFC8DA"/>
</svg>
