<svg width="97" height="16" viewBox="0 0 397 16" fill="none" xmlns="http://www.w3.org/2000/svg">
<path d="M396.707 8.70711C397.098 8.31658 397.098 7.68342 396.707 7.29289L390.343 0.928932C389.953 0.538408 389.319 0.538408 388.929 0.928932C388.538 1.31946 388.538 1.95262 388.929 2.34315L394.586 8L388.929 13.6569C388.538 14.0474 388.538 14.6805 388.929 15.0711C389.319 15.4616 389.953 15.4616 390.343 15.0711L396.707 8.70711ZM0 9H1.98V7H0V9ZM5.94 9H9.9V7H5.94V9ZM13.86 9H17.82V7H13.86V9ZM21.78 9H25.74V7H21.78V9ZM29.7 9H33.66V7H29.7V9ZM37.62 9H41.58V7H37.62V9ZM45.54 9H49.5V7H45.54V9ZM53.46 9H57.42V7H53.46V9ZM61.38 9H65.34V7H61.38V9ZM69.3 9H73.26V7H69.3V9ZM77.22 9H81.18V7H77.22V9ZM85.14 9H89.1V7H85.14V9ZM93.06 9H97.02V7H93.06V9ZM100.98 9H104.94V7H100.98V9ZM108.9 9H112.86V7H108.9V9ZM116.82 9H120.78V7H116.82V9ZM124.74 9H128.7V7H124.74V9ZM132.66 9H136.62V7H132.66V9ZM140.58 9H144.54V7H140.58V9ZM148.5 9H152.46V7H148.5V9ZM156.42 9H160.38V7H156.42V9ZM164.34 9H168.3V7H164.34V9ZM172.26 9H176.22V7H172.26V9ZM180.18 9H184.14V7H180.18V9ZM188.1 9H192.06V7H188.1V9ZM196.02 9H199.98V7H196.02V9ZM203.94 9H207.9V7H203.94V9ZM211.86 9H215.82V7H211.86V9ZM219.78 9H223.74V7H219.78V9ZM227.7 9H231.66V7H227.7V9ZM235.62 9H239.58V7H235.62V9ZM243.54 9H247.5V7H243.54V9ZM251.46 9H255.42V7H251.46V9ZM259.38 9H263.34V7H259.38V9ZM267.3 9H271.26V7H267.3V9ZM275.22 9H279.18V7H275.22V9ZM283.14 9H287.1V7H283.14V9ZM291.06 9H295.02V7H291.06V9ZM298.98 9H302.94V7H298.98V9ZM306.9 9H310.86V7H306.9V9ZM314.82 9H318.78V7H314.82V9ZM322.74 9H326.7V7H322.74V9ZM330.66 9H334.62V7H330.66V9ZM338.58 9H342.54V7H338.58V9ZM346.5 9H350.46V7H346.5V9ZM354.42 9H358.38V7H354.42V9ZM362.34 9H366.3V7H362.34V9ZM370.26 9H374.22V7H370.26V9ZM378.18 9H382.14V7H378.18V9ZM386.1 9H390.06V7H386.1V9ZM394.02 9H396V7H394.02V9Z" fill="#BFC8DA"/>
</svg>
